# xmcd CD database file
#
# Track frame offsets:
#	150
#	23852
#	47250
#	71187
#	74107
#	95992
#	125062
#	143102
#	160652
#	183292
#	203465
#	211750
#	231152
#	251415
#
# Disc length: 3425 seconds
#
# Revision: 4
# Processed by: cddbd v1.5PL3 Copyright (c) Steve Scherf et al.
# Submitted via: freeDB plugin v1.0
#
DISCID=ca0d5f0e
DTITLE=ＰＵＳＨＩＭ - Ｓａｙ　Ｇｒｅｅｔｉｎｇｓ！
DYEAR=2000
DGENRE=Reggae
TTITLE0=Ｂｒａｎｄ　Ｎｅｗ　Ｄａｙ
TTITLE1=Ｇｒｅｅｔｉｎｇｓ！
TTITLE2=１９９９
TTITLE3=Ｗｏｍａｎ　Ｓａｙｓ　Ｎｏ
TTITLE4=Ｓｔｒｏｎｇ　Ｗｏｍａｎ
TTITLE5=果実の月
TTITLE6=Ｉｔ’ｓ　Ｔｏｏ　Ｌａｔｅ
TTITLE7=Ｖｉｂｅｓ　Ｕｐ
TTITLE8=Ｓｉｎｇｅｒ　Ｐｕｓｈｉｍ　Ｖｅｘｅｄ
TTITLE9=愛の歌
TTITLE10=Ｓｅｅ　Ｔｈｅ　Ｌｉｇｈｔ
TTITLE11=Ｆｏｒ　Ｙｏｕｒ　Ｓｏｎｇ
TTITLE12=波が…
TTITLE13=Ｓｅｅ　Ｙｏｕ　Ｔｏｍｏｒｒｏｗ
EXTD=
EXTT0=
EXTT1=
EXTT2=
EXTT3=
EXTT4=
EXTT5=
EXTT6=
EXTT7=
EXTT8=
EXTT9=
EXTT10=
EXTT11=
EXTT12=
EXTT13=
PLAYORDER=
